<svg xmlns="http://www.w3.org/2000/svg" xmlns:xlink="http://www.w3.org/1999/xlink" width="90" height="90" viewBox="0 0 90 90">
  <defs>
    <linearGradient id="linear-gradient" x1="0.5" x2="0.5" y2="1" gradientUnits="objectBoundingBox">
      <stop offset="0" stop-color="#f24c57"/>
      <stop offset="1" stop-color="#1800bc"/>
    </linearGradient>
  </defs>
  <g id="Groupe_26" data-name="Groupe 26" transform="translate(-995 -1298)">
    <path id="Exclusion_1" data-name="Exclusion 1" d="M-205,353v0l9.5-28.5a41.962,41.962,0,0,1-3.372-9.235A41.956,41.956,0,0,1-200,305.5a42.471,42.471,0,0,1,6.354-22.337A42.473,42.473,0,0,1-176.5,267.5a41.95,41.95,0,0,1,9.181-3.36,41.954,41.954,0,0,1,9.71-1.141H-155a42.343,42.343,0,0,1,27.645,12.355A42.345,42.345,0,0,1-115,303v2.5a41.957,41.957,0,0,1-1.128,9.766A41.96,41.96,0,0,1-119.5,324.5a42.472,42.472,0,0,1-15.663,17.146A42.47,42.47,0,0,1-157.5,348h-.109a41.95,41.95,0,0,1-9.71-1.14,41.949,41.949,0,0,1-9.182-3.36L-205,353Zm46.865-80a32.765,32.765,0,0,0-14.7,3.5,32.878,32.878,0,0,0-18.278,29.556,32.739,32.739,0,0,0,3.5,14.777L-195,343l22.167-7.389a32.739,32.739,0,0,0,14.692,3.5h.086A32.875,32.875,0,0,0-128.5,320.833a32.738,32.738,0,0,0,3.5-14.777v-1.945A32.942,32.942,0,0,0-156.111,273h-2.024Z" transform="translate(1200 1035)" fill="url(#linear-gradient)"/>
  </g>
</svg>
