<svg xmlns="http://www.w3.org/2000/svg" xmlns:xlink="http://www.w3.org/1999/xlink" width="279.755" height="333.372" viewBox="0 0 279.755 333.372">
  <defs>
    <linearGradient id="linear-gradient" x2="1" y2="1.02" gradientUnits="objectBoundingBox">
      <stop offset="0" stop-color="#f24c57"/>
      <stop offset="1" stop-color="#1800bc"/>
    </linearGradient>
  </defs>
  <g id="brief" transform="translate(0.02)">
    <path id="Tracé_47" data-name="Tracé 47" d="M146.53,0c3.11,1.46,6.53,2.49,9.27,4.46,5.45,3.92,7.87,9.63,7.97,16.32.02,1.62,0,3.24,0,5.31h3.69q22.635,0,45.26,0c10.81.01,17.7,6.61,17.47,17.38-.09,4.35.8,6.88,5.2,8.45,3.7,1.33,6.97,3.87,11.11,6.28,1.67-1.87,3.42-4.09,5.43-6.05,6.84-6.7,16.56-6.85,23.02-.46,6.51,6.44,6.39,16.41-.44,23.26q-28.725,28.83-57.56,57.55c-7.09,7.06-16.58,6.96-23.74-.14q-13.17-13.065-26.25-26.24c-6.86-6.92-7.05-16.77-.54-23.26s16.31-6.27,23.28.58c5.1,5.01,10.1,10.11,14.86,14.88,11.27-11.26,22.34-22.34,33.56-33.55a47.84,47.84,0,0,0-21.23-8.75c-31.52-4.87-58.94,17.21-61.06,49.06-2,30.1,24.68,56.77,54.79,54.75,27.71-1.86,47.75-21.78,49.83-49.53.27-3.62,2.08-5.59,5.05-5.52,3.09.07,5,2.31,4.69,6.1-2.04,24.83-14.35,42.68-36.84,53.39-2.31,1.1-3.11,2.22-3.11,4.78q.12,73.245.05,146.5c0,9.41-4.92,15.9-13.24,17.53a21.864,21.864,0,0,1-4.21.28q-97.68.015-195.37,0c-10.82,0-17.49-6.64-17.49-17.41Q.01,179.72,0,43.47C0,32.87,6.69,26.12,17.21,26.1c10.2-.03,20.4,0,30.61,0,2.83,0,4.9,1.13,5.5,4.02a4.417,4.417,0,0,1-2.8,5.28,9.22,9.22,0,0,1-3.5.45c-9.77.03-19.54,0-29.3.02-5.66.01-7.94,2.26-7.94,7.86V315.89c0,5.43,2.29,7.7,7.75,7.71q97.515.015,195.04,0c5.66,0,7.94-2.21,7.94-7.87q.03-72.27,0-144.54c0-.75-.11-1.49-.19-2.51-22.81,3.55-42.47-2.48-58.17-19.48-11.41-12.36-16.73-27.28-16.07-44.07,1.48-37.61,36.19-65.97,73.91-58.81,1.82-6.54-1.01-10.44-7.62-10.45q-22.635-.03-45.26,0c-.96,0-1.91.09-3.33.16,0,2.48.06,4.83-.01,7.18-.22,7.35-4.78,11.97-12.16,11.99q-36.465.1-72.94,0c-7.47-.02-12.16-4.85-12.2-12.29-.04-6.94-.02-13.89,0-20.83.02-11.23,5.3-18.27,16.1-21.56A3.269,3.269,0,0,0,83.36,0ZM115.24,45.41c11.71,0,23.42-.06,35.13.04,2.63.02,3.71-.79,3.66-3.52-.12-6.94.05-13.88-.07-20.81-.12-7.06-4.46-11.32-11.48-11.34q-27.33-.06-54.65,0c-7.13.02-11.54,4.45-11.59,11.59-.05,6.72.12,13.45-.07,20.16-.08,3.02.95,3.97,3.93,3.93,11.71-.13,23.42-.05,35.13-.05ZM269.96,64.05c-.2-3.78-1.5-5.85-4.28-6.84-3.14-1.12-5.39.38-7.51,2.5q-24.15,24.2-48.34,48.34c-3.62,3.61-5.71,3.6-9.35-.02-5.85-5.82-11.64-11.68-17.51-17.48-3.33-3.29-6.99-3.48-9.7-.62-2.64,2.77-2.39,6.27.81,9.49q12.975,13.05,26.01,26.01c3.28,3.26,6.78,3.33,9.99.13q28.815-28.725,57.52-57.57a16.1,16.1,0,0,0,2.35-3.93Z" fill="url(#linear-gradient)"/>
    <path id="Tracé_48" data-name="Tracé 48" d="M61.34,198.41A19.681,19.681,0,1,1,41.6,178.53a19.707,19.707,0,0,1,19.74,19.88Zm-9.78-.14a9.857,9.857,0,1,1-.01,0Z" fill="url(#linear-gradient)"/>
    <path id="Tracé_49" data-name="Tracé 49" d="M61.34,138.5a19.306,19.306,0,1,0-.01,0Zm-9.79-.36a9.9,9.9,0,1,0-9.75,10.14A9.963,9.963,0,0,0,51.55,138.14Z" fill="url(#linear-gradient)"/>
    <path id="Tracé_50" data-name="Tracé 50" d="M61.34,257.83a13.994,13.994,0,1,0-.01.01Zm-9.78.03a9.769,9.769,0,1,0,0,.01Z" fill="url(#linear-gradient)"/>
    <path id="Tracé_51" data-name="Tracé 51" d="M113.78,182.15c13,0,26.01.02,39.01-.01,2.95,0,5.12.95,5.68,4.1a4.674,4.674,0,0,1-3.88,5.48,15.8,15.8,0,0,1-3.23.19q-37.71,0-75.42,0a14.9,14.9,0,0,1-3.54-.28,4.45,4.45,0,0,1-3.64-5.04,4.329,4.329,0,0,1,4.4-4.36c3.57-.14,7.15-.08,10.73-.08H113.8Z" fill="url(#linear-gradient)"/>
    <path id="Tracé_52" data-name="Tracé 52" d="M113.58,274q-18.855,0-37.71-.02a13.318,13.318,0,0,1-3.84-.42,4.772,4.772,0,0,1,.85-9.27,25.094,25.094,0,0,1,3.25-.11h75.1c.87,0,1.74,0,2.6.05a4.561,4.561,0,0,1,4.7,4.45,4.757,4.757,0,0,1-4.31,5.19,20.567,20.567,0,0,1-3.24.12H113.59Z" fill="url(#linear-gradient)"/>
    <path id="Tracé_53" data-name="Tracé 53" d="M103.09,251.28c-9.55,0-19.09.03-28.64-.02-3.79-.02-6.17-2.33-5.7-5.47a4.542,4.542,0,0,1,4.89-4.25q29.625-.045,59.24,0a4.827,4.827,0,0,1,5.14,4.74c.04,2.9-2.16,4.96-5.63,4.98-9.76.05-19.53.02-29.29.02Z" fill="url(#linear-gradient)"/>
    <path id="Tracé_54" data-name="Tracé 54" d="M102.9,155.18c-9.33,0-18.65.02-27.98,0-4.08-.01-6.32-1.83-6.24-4.95.08-2.98,2.29-4.79,6.14-4.8,19.09-.03,38.18,0,57.26-.01,2.6,0,5.03.73,5.54,3.47a6.569,6.569,0,0,1-1.35,4.89c-.86,1-2.9,1.33-4.42,1.35-9.65.11-19.3.06-28.96.06Z" fill="url(#linear-gradient)"/>
    <path id="Tracé_55" data-name="Tracé 55" d="M103.21,132.54c-9.43,0-18.87.13-28.3-.12a8.1,8.1,0,0,1-5.48-2.51c-2.06-2.51-.13-6.31,3.15-6.94a19.186,19.186,0,0,1,3.56-.19q27.165-.015,54.33,0c.76,0,1.52-.02,2.28.03,3.25.22,5.35,2.21,5.26,4.98-.08,2.67-2.09,4.63-5.2,4.71-4.66.12-9.33.04-13.99.04H103.2Z" fill="url(#linear-gradient)"/>
    <path id="Tracé_56" data-name="Tracé 56" d="M93.64,214.57c-6.4,0-12.8.06-19.2-.02-3.6-.04-5.72-1.94-5.76-4.83s2.08-4.89,5.64-4.95c6.51-.1,13.02-.04,19.53-.04,6.29,0,12.59-.05,18.88.03,3.48.05,5.53,1.76,5.76,4.51.25,2.99-1.99,5.21-5.64,5.27-6.4.09-12.8.03-19.2.03Z" fill="url(#linear-gradient)"/>
    <path id="Tracé_57" data-name="Tracé 57" d="M47.84,82.06c-5.21,0-10.41.03-15.62-.01-3.6-.03-5.69-1.83-5.75-4.78-.06-3.08,2.1-4.97,5.88-4.98q15.45-.045,30.91,0c3.57.01,5.71,1.86,5.77,4.78.06,3.05-2.14,4.95-5.9,4.98-5.1.04-10.2.01-15.29,0Z" fill="url(#linear-gradient)"/>
  </g>
</svg>
