<svg xmlns="http://www.w3.org/2000/svg" xmlns:xlink="http://www.w3.org/1999/xlink" width="46.36" height="46.321" viewBox="0 0 46.36 46.321">
  <defs>
    <linearGradient id="linear-gradient" x1="0.337" y1="0.186" x2="0.924" y2="0.801" gradientUnits="objectBoundingBox">
      <stop offset="0" stop-color="#f24c57"/>
      <stop offset="1" stop-color="#1800bc"/>
    </linearGradient>
  </defs>
  <g id="Icon_ionic-ios-rocket" data-name="Icon ionic-ios-rocket" transform="translate(-3.366 -3.372)">
    <path id="Tracé_35" data-name="Tracé 35" d="M49.482,4a.492.492,0,0,0-.368-.379c-6.061-1.482-20.065,3.8-27.652,11.386a32.8,32.8,0,0,0-3.688,4.356A13.722,13.722,0,0,0,11.1,20.2C5.475,22.673,3.837,29.135,3.38,31.909a1,1,0,0,0,1.092,1.159l9.035-.992a20.086,20.086,0,0,0,.123,2.039,2.022,2.022,0,0,0,.59,1.237l3.5,3.5a2.022,2.022,0,0,0,1.237.59,20.047,20.047,0,0,0,2.028.123l-.992,9.024a1,1,0,0,0,1.159,1.092c2.774-.446,9.247-2.083,11.709-7.71a13.784,13.784,0,0,0,.847-6.651,32.847,32.847,0,0,0,4.367-3.688C45.694,24.054,50.941,10.362,49.482,4ZM31.3,21.815a4.758,4.758,0,1,1,6.729,0A4.754,4.754,0,0,1,31.3,21.815Z" transform="translate(0 0)" fill="url(#linear-gradient)"/>
    <path id="Tracé_36" data-name="Tracé 36" d="M16.059,28.748h0a4.227,4.227,0,0,1-2.206.891A3,3,0,0,1,10.4,26.186a4.143,4.143,0,0,1,.88-2.195l.011-.011a.372.372,0,0,0-.312-.635,5.121,5.121,0,0,0-3,1.459c-2.005,2.005-2.195,9.448-2.195,9.448s7.453-.189,9.459-2.195a5.088,5.088,0,0,0,1.459-3A.381.381,0,0,0,16.059,28.748Z" transform="translate(1.415 11.672)" fill="url(#linear-gradient)"/>
  </g>
</svg>
