<svg xmlns="http://www.w3.org/2000/svg" xmlns:xlink="http://www.w3.org/1999/xlink" width="489.297" height="415.516" viewBox="0 0 489.297 415.516">
  <defs>
    <linearGradient id="linear-gradient" x1="0.5" x2="0.5" y2="1" gradientUnits="objectBoundingBox">
      <stop offset="0" stop-color="#f24c57"/>
      <stop offset="1" stop-color="#1800bc"/>
    </linearGradient>
  </defs>
  <g id="graph" transform="translate(0.016 0.015)">
    <path id="Tracé_37" data-name="Tracé 37" d="M489.28,28.11c-.6,8.87-1.33,17.73-1.79,26.6-.8,15.58-1.39,31.17-2.14,46.76-.31,6.42-2.08,12.18-7.69,16.17-6.14,4.37-12.22,4.49-17.82-.62-7.05-6.43-13.75-13.25-20.53-19.99-1.34-1.33-2.31-3.02-4.62-6.12-1.84,2.82-2.64,4.66-3.97,5.99Q336.7,191.04,242.6,285.08c-10.16,10.16-21.69,12.32-32.31,5.86a40.666,40.666,0,0,1-7.32-6.06q-35.535-35.4-70.93-70.94a34.883,34.883,0,0,1-3.27-4.58c-2.18,2.02-3.46,3.12-4.66,4.32-24.9,24.87-49.86,49.67-74.63,74.68-7.51,7.58-16.04,12.04-26.55,8.74C11.84,293.62,4.24,285.81.88,274.51c-2.18-7.36-.23-14.19,4.18-20.3a44.518,44.518,0,0,1,4.8-5.3q48.99-48.975,98-97.92c13.37-13.35,26.85-13.31,40.28.1l70.95,70.92c1.22,1.22,2.49,2.39,3.24,3.11,57.62-57.49,114.98-114.71,173.04-172.64-7.62-7.41-15.52-14.79-23.05-22.52-6.27-6.42-6.68-13.28-1.79-19.81,3.24-4.32,7.86-5.7,12.98-5.95q28.38-1.425,56.77-2.82C449.66.93,459.06.77,468.43.09c9.7-.7,17.21,1.96,20.83,11.77V28.11Z" fill="url(#linear-gradient)"/>
    <path id="Tracé_38" data-name="Tracé 38" d="M434.68,134.65c5.57,2.66,6.26,6.9,6.25,12.08q-.2,127.245-.1,254.48c0,1.91.05,3.83-.13,5.72-.46,4.95-3.25,8.24-8.15,8.28q-31.02.315-62.05.04c-5.18-.05-8.03-3.38-8.44-8.53-.11-1.42-.08-2.86-.08-4.29q0-95.01-.09-190.02a11.693,11.693,0,0,1,3.86-9.11q32.895-32.595,65.55-65.44c1.11-1.11,2.28-2.17,3.37-3.21Z" fill="url(#linear-gradient)"/>
    <path id="Tracé_39" data-name="Tracé 39" d="M331.44,238.06V402.19c0,10.61-2.65,13.27-13.22,13.28q-26.52,0-53.03,0c-10.33,0-12.86-2.59-12.86-13.09,0-27.71.04-55.42-.06-83.12-.01-2.8.65-4.65,3.05-6.33a63.39,63.39,0,0,0,8.24-7.23q31.635-31.53,63.19-63.14c1.22-1.22,2.49-2.38,4.68-4.48Z" fill="url(#linear-gradient)"/>
    <path id="Tracé_40" data-name="Tracé 40" d="M142.96,266.27c9.78,9.79,18.65,18.66,27.52,27.54,4.73,4.73,9.43,9.48,14.19,14.17,9.28,9.15,20.32,14.58,33.4,15.64,1.09.09,2.16.37,3.48.61.08,1.51.22,2.9.22,4.29q.015,37.485,0,74.96c0,9.09-2.87,11.97-12,11.99q-27.69.045-55.38,0c-8.45-.02-11.64-3.11-11.65-11.44q-.06-66.84-.01-133.68c0-.91.1-1.81.23-4.06Z" fill="url(#linear-gradient)"/>
    <path id="Tracé_41" data-name="Tracé 41" d="M112.18,268.63V402.2c0,10.81-2.42,13.26-13.1,13.26q-26.76,0-53.51,0c-9.54-.01-12.24-2.71-12.25-12.16q-.03-35.6,0-71.18V327.6c3.63-.75,7.04-1.28,10.36-2.16,10.11-2.68,18.52-8.24,25.84-15.58q20.745-20.775,41.49-41.57l1.18.33Z" fill="url(#linear-gradient)"/>
  </g>
</svg>
